<svg xmlns="http://www.w3.org/2000/svg" width="41.25" height="33" viewBox="0 0 41.25 33">
  <path id="head-side-cough-solid" d="M39.7,19.594a1.547,1.547,0,1,0-1.547-1.547A1.547,1.547,0,0,0,39.7,19.594Zm-4.125,7.219a1.547,1.547,0,1,0,1.547,1.547A1.547,1.547,0,0,0,35.578,26.812ZM31.453,23.2A1.547,1.547,0,1,0,33,24.75,1.547,1.547,0,0,0,31.453,23.2Zm8.25,6.7a1.547,1.547,0,1,0,1.547,1.547A1.547,1.547,0,0,0,39.7,29.906Zm0-6.7A1.547,1.547,0,1,0,41.25,24.75,1.547,1.547,0,0,0,39.7,23.2Zm-4.125-2.578a1.547,1.547,0,1,0,1.547,1.547A1.547,1.547,0,0,0,35.578,20.625Zm-4.82-2.9C29.4,14.688,27.632,7.944,26.046,5.688A13.415,13.415,0,0,0,15.088,0H12.375a12.365,12.365,0,0,0-8.25,21.584V33H18.563V30.937h4.125a4.125,4.125,0,0,0,4.125-4.125H20.625a2.063,2.063,0,0,1,0-4.125h6.188V20.625h2.063a2.062,2.062,0,0,0,1.883-2.9Zm-12.2-3.287a2.063,2.063,0,1,1,2.063-2.062A2.062,2.062,0,0,1,18.563,14.437Z" fill="#282754"/>
</svg>
