<svg xmlns="http://www.w3.org/2000/svg" width="33" height="33" viewBox="0 0 33 33">
  <path id="meh-rolling-eyes-solid" d="M16.5,8A16.5,16.5,0,1,0,33,24.5,16.5,16.5,0,0,0,16.5,8ZM5.855,22.371A4.238,4.238,0,0,1,8.09,18.645a2.043,2.043,0,0,0-.106.532,2.129,2.129,0,1,0,4.258,0,2.043,2.043,0,0,0-.106-.532,4.25,4.25,0,1,1-6.281,3.726Zm14.9,11.71H12.242a1.065,1.065,0,0,1,0-2.129h8.516A1.065,1.065,0,0,1,20.758,34.081Zm2.129-7.452a4.245,4.245,0,0,1-2.023-7.984,2.043,2.043,0,0,0-.106.532,2.129,2.129,0,1,0,4.258,0,2.043,2.043,0,0,0-.106-.532,4.245,4.245,0,0,1-2.023,7.984Z" transform="translate(0 -8)" fill="#282754"/>
</svg>
