<svg xmlns="http://www.w3.org/2000/svg" width="41.25" height="33" viewBox="0 0 41.25 33">
  <path id="lungs-solid" d="M41,25.146a52.936,52.936,0,0,0-6.575-14.89C33,8.028,32.1,6.187,29.265,6.187a4.382,4.382,0,0,0-4.515,4.235V14.3l-2.119-1.413a1.031,1.031,0,0,1-.459-.858v-11A1.031,1.031,0,0,0,21.141,0H20.109a1.031,1.031,0,0,0-1.031,1.031v11a1.031,1.031,0,0,1-.459.858L16.5,14.3V10.423a4.382,4.382,0,0,0-4.515-4.235c-2.835,0-3.734,1.841-5.159,4.069A52.936,52.936,0,0,0,.251,25.146,7.391,7.391,0,0,0,0,27.056c0,3.946,4.027,6.8,8.072,5.712l3.835-1.028A6.008,6.008,0,0,0,16.5,26.028V20.389l-5.533,3.689a.515.515,0,0,1-.715-.143l-.572-.858a.515.515,0,0,1,.143-.715l10.8-7.2,10.8,7.2a.515.515,0,0,1,.143.715L31,23.935a.515.515,0,0,1-.715.143L24.75,20.389v5.639a6.009,6.009,0,0,0,4.593,5.712l3.835,1.028C37.223,33.852,41.25,31,41.25,27.056A7.391,7.391,0,0,0,41,25.146Z" fill="#282754"/>
</svg>
