<?xml version="1.0" encoding="utf-8"?>
<!-- Generator: Adobe Illustrator 24.1.1, SVG Export Plug-In . SVG Version: 6.00 Build 0)  -->
<svg version="1.1" id="Warstwa_1" xmlns="http://www.w3.org/2000/svg" xmlns:xlink="http://www.w3.org/1999/xlink" x="0px" y="0px"
	 viewBox="0 0 52.1 34.1" style="enable-background:new 0 0 52.1 34.1;" xml:space="preserve">
<style type="text/css">
	.st0{fill:#F9345E;}
</style>
<path id="skull-crossbones-solid" class="st0" d="M17.5,27.6l-0.6,3c-0.4,1.2,0.3,2.5,1.5,2.8c0.1,0,0.2,0.1,0.4,0.1h14.7
	c1.2-0.1,2.1-1.3,2-2.5c0-0.1,0-0.3-0.1-0.4l-0.6-3c4.9-2.6,8.1-7.3,8.1-12.7C42.8,6.7,35.3,0,26.1,0S9.3,6.7,9.3,14.9
	C9.3,20.3,12.6,25,17.5,27.6z M32.6,13c2.1,0,3.7,1.7,3.7,3.7s-1.7,3.7-3.7,3.7s-3.7-1.7-3.7-3.7C28.9,14.7,30.5,13,32.6,13z
	 M19.5,13c2.1,0,3.7,1.7,3.7,3.7s-1.7,3.7-3.7,3.7s-3.7-1.7-3.7-3.7C15.8,14.7,17.5,13,19.5,13z"/>
</svg>
