<svg xmlns="http://www.w3.org/2000/svg" width="31.175" height="24.243" viewBox="0 0 31.175 24.243">
  <path id="home-solid" d="M15.159,38.339,5.181,46.557v8.87a.866.866,0,0,0,.866.866l6.065-.016a.866.866,0,0,0,.862-.866v-5.18a.866.866,0,0,1,.866-.866H17.3a.866.866,0,0,1,.866.866v5.176a.866.866,0,0,0,.866.869l6.062.017a.866.866,0,0,0,.866-.866V46.551l-9.976-8.212a.66.66,0,0,0-.828,0ZM30.92,43.925,26.4,40.2V32.7a.649.649,0,0,0-.649-.649H22.715a.649.649,0,0,0-.649.649v3.93l-4.845-3.986a2.6,2.6,0,0,0-3.3,0L.22,43.925a.649.649,0,0,0-.087.915l1.38,1.678a.649.649,0,0,0,.915.088L15.159,36.12a.66.66,0,0,1,.828,0l12.73,10.485a.649.649,0,0,0,.915-.087l1.38-1.678a.649.649,0,0,0-.092-.916Z" transform="translate(0.015 -32.05)" fill="#282754"/>
</svg>
