<svg xmlns="http://www.w3.org/2000/svg" width="38.103" height="33.34" viewBox="0 0 38.103 33.34">
  <path id="heartbeat-solid" d="M23.814,47.715l-3.7,7.4a1.19,1.19,0,0,1-2.151-.045l-4.234-9.4L11.5,51h-7L18.077,64.883a1.326,1.326,0,0,0,1.912,0L33.577,51H25.459l-1.645-3.289ZM35.237,35.072l-.179-.186a9.749,9.749,0,0,0-13.945,0l-2.076,2.128L16.96,34.893a9.736,9.736,0,0,0-13.945,0l-.179.179a10.218,10.218,0,0,0-.543,13.551h7.62l2.672-6.415a1.193,1.193,0,0,1,2.188-.03L19.1,51.8l3.646-7.285a1.189,1.189,0,0,1,2.128,0l2.054,4.108H35.78A10.218,10.218,0,0,0,35.237,35.072Z" transform="translate(0.015 -31.95)" fill="#8aca2b"/>
</svg>
