<svg xmlns="http://www.w3.org/2000/svg" width="33.345" height="29.177" viewBox="0 0 33.345 29.177">
  <path id="heartbeat-solid" d="M20.839,45.746,17.6,52.22a1.041,1.041,0,0,1-1.882-.039l-3.706-8.225-1.954,4.669H3.933L15.818,60.77a1.16,1.16,0,0,0,1.674,0L29.383,48.625h-7.1l-1.439-2.878Zm10-11.064-.156-.163a8.531,8.531,0,0,0-12.2,0l-1.817,1.863-1.817-1.856a8.52,8.52,0,0,0-12.2,0l-.156.156A8.942,8.942,0,0,0,2,46.541H8.674l2.338-5.614a1.044,1.044,0,0,1,1.915-.026l3.79,8.42,3.191-6.376a1.041,1.041,0,0,1,1.863,0l1.8,3.595H31.31A8.942,8.942,0,0,0,30.835,34.682Z" transform="translate(0.015 -31.95)" fill="#282754"/>
</svg>
