<svg xmlns="http://www.w3.org/2000/svg" width="37.125" height="33" viewBox="0 0 37.125 33">
  <path id="people-arrows-solid" d="M6.188,8.25A4.125,4.125,0,1,0,2.063,4.125,4.125,4.125,0,0,0,6.188,8.25Zm0,11.349a2.843,2.843,0,0,1,.879-2.062l4.649-4.388a2.745,2.745,0,0,1,.362-.23A4.119,4.119,0,0,0,8.25,10.313H4.125A4.125,4.125,0,0,0,0,14.438v6.187a2.062,2.062,0,0,0,2.063,2.063v8.25A2.062,2.062,0,0,0,4.125,33H8.25a2.062,2.062,0,0,0,2.063-2.062V24.725L7.067,21.661A2.841,2.841,0,0,1,6.188,19.6ZM30.938,8.25a4.125,4.125,0,1,0-4.125-4.125A4.125,4.125,0,0,0,30.938,8.25ZM33,10.313H28.875a4.119,4.119,0,0,0-3.827,2.605,2.467,2.467,0,0,1,.362.231l4.648,4.387a2.86,2.86,0,0,1,0,4.125l-3.246,3.065v6.212A2.063,2.063,0,0,0,28.875,33H33a2.062,2.062,0,0,0,2.063-2.062v-8.25a2.063,2.063,0,0,0,2.063-2.062V14.438A4.125,4.125,0,0,0,33,10.313Zm-4.357,8.723-4.648-4.387a.773.773,0,0,0-1.307.562v2.32h-8.25v-2.32a.773.773,0,0,0-1.307-.563L8.482,19.036a.8.8,0,0,0,0,1.126l4.648,4.387a.773.773,0,0,0,1.307-.563V21.656h8.25v2.329a.773.773,0,0,0,1.307.563l4.648-4.387a.8.8,0,0,0,0-1.126Z" fill="#282754"/>
</svg>
