<?xml version="1.0" encoding="utf-8"?>
<!-- Generator: Adobe Illustrator 24.1.1, SVG Export Plug-In . SVG Version: 6.00 Build 0)  -->
<svg version="1.1" id="Warstwa_1" xmlns="http://www.w3.org/2000/svg" xmlns:xlink="http://www.w3.org/1999/xlink" x="0px" y="0px"
	 viewBox="0 0 51.5 33.1" style="enable-background:new 0 0 51.5 33.1;" xml:space="preserve">
<style type="text/css">
	.st0{fill:#282754;}
</style>
<path id="skull-crossbones-solid" class="st0" d="M17.2,27.3l-0.6,3c-0.3,1.2,0.3,2.4,1.5,2.8c0.1,0,0.2,0.1,0.4,0.1H33
	c1.2-0.1,2.1-1.3,2-2.5c0-0.1,0-0.3-0.1-0.4l-0.6-3c4.8-2.6,8-7.2,8-12.6C42.3,6.6,34.9,0,25.7,0S9.2,6.6,9.2,14.7
	C9.2,20.1,12.4,24.7,17.2,27.3z M32.2,12.9c2,0,3.7,1.6,3.7,3.7s-1.6,3.7-3.7,3.7c-2,0-3.7-1.6-3.7-3.7
	C28.5,14.5,30.1,12.9,32.2,12.9L32.2,12.9z M19.3,12.9c2,0,3.7,1.6,3.7,3.7s-1.6,3.7-3.7,3.7s-3.7-1.6-3.7-3.7l0,0
	C15.6,14.5,17.3,12.9,19.3,12.9L19.3,12.9z"/>
</svg>
