<svg xmlns="http://www.w3.org/2000/svg" width="42.437" height="33" viewBox="0 0 42.437 33">
  <path id="home-solid_1_" data-name="home-solid (1)" d="M20.64,40.611,7.058,51.8V63.871A1.179,1.179,0,0,0,8.237,65.05l8.255-.021a1.179,1.179,0,0,0,1.173-1.179V56.8a1.179,1.179,0,0,1,1.179-1.179h4.715A1.179,1.179,0,0,1,24.737,56.8v7.046a1.179,1.179,0,0,0,1.179,1.182l8.252.023a1.179,1.179,0,0,0,1.179-1.179V51.79L21.768,40.611a.9.9,0,0,0-1.127,0Zm21.455,7.6-6.159-5.077v-10.2a.884.884,0,0,0-.884-.884H30.927a.884.884,0,0,0-.884.884v5.349l-6.6-5.426a3.536,3.536,0,0,0-4.494,0L.306,48.214a.884.884,0,0,0-.118,1.245l1.879,2.284a.884.884,0,0,0,1.246.12L20.64,37.591a.9.9,0,0,1,1.127,0L39.1,51.863a.884.884,0,0,0,1.245-.118l1.879-2.284a.884.884,0,0,0-.125-1.247Z" transform="translate(0.015 -32.05)" fill="#282754"/>
</svg>
