<svg xmlns="http://www.w3.org/2000/svg" viewBox="0 0 184.78 172.58"><defs><style>.cls-1{fill:#f8f9fd;}</style></defs><g id="Warstwa_2" data-name="Warstwa 2"><g id="Warstwa_1-2" data-name="Warstwa 1"><path id="path1334-2" class="cls-1" d="M109.41,169.24c-1.83-1.84-3.33-5-3.33-6.92,0-3.2-5.38-10.36-14.69-19.54-4.61-4.55-4.11-7.64,1.61-9.87,4.25-1.66,4.9-2.72,4.9-7.85,0-4.11-1.1-6.89-3.57-9.07-3.84-3.37-8.67-4.12-10.32-1.6-3,4.5-20.44-1.54-20.44-7,0-1.47-1.8-2.21-5.38-2.21-12,0-27.32-11.83-27.32-21.18,0-3-.77-3.66-3.68-3.37a19.94,19.94,0,0,1-8.3-1.74C12.64,76,9,78.36,8.29,85.61c-.43,4.81-1.09,5.63-4.5,5.63-4.83,0-5-1.46-.77-6.53,1.77-2.12,4.42-7.25,5.9-11.4A138,138,0,0,1,14.7,59.69c3.56-7,3.86-10.32,1.17-12.86-1.46-1.37-1.47-2.76,0-5.71,1.91-4,5.84-5.17,7.68-2.36C26.59,43.48,39,38.2,39,32.17c0-4.28,3.2-4.58,4.86-.45.88,2.18,2.53,4,3.68,3.93,6-.06,9.43-2.21,11.11-7,1-2.84,3.23-5.59,5-6.11,2.16-.65,3.5-2.92,4.21-7.1s1.71-5.92,3.27-5.35c1.23.44,2.23.13,2.23-.69a18.1,18.1,0,0,1,.22-2.65C74,4.62,79.29,1.93,84,1.44c4.34-.45,4.8,0,6.12,6.16,1.84,8.57,5.64,8.21,10.3-.95L103.84,0l6.84,7c3.76,3.85,6.83,8.4,6.83,10.11,0,2,3,5,8.79,8.61,11.78,7.38,24.18,8.84,33.07,3.9l6.08-3.39,3.42,3.36c2.41,2.37,2.81,3.57,1.37,4.08-1.12.4-2,2.32-2,4.27,0,2.9,1.3,3.85,7.2,5.25,7.1,1.69,7.21,1.82,7.87,9.06a73,73,0,0,0,1.39,9.66c.52,1.71-.58,2.29-4.2,2.21-5.45-.12-8.86,3-8.94,8.12,0,1.86-.79,3.81-1.69,4.34a4.75,4.75,0,0,0-1.64,3.76c0,1.55-3.25,6.16-7.22,10.25s-7.61,8.86-8.08,10.6c-3,11.48-7.58,20.18-10.73,20.64-2.12.31-3.39,1.64-3.39,3.54s-2.05,4.15-4.9,5.68c-2.69,1.45-4.9,3.55-4.9,4.67s-1.11,3.08-2.46,4.36c-3.79,3.58-3,6.64,3.27,12,7.16,6.2,7.2,8.18.15,9.43-3.06.54-8.19,3.25-11.39,6l-5.81,5Z"/></g></g></svg>