<svg xmlns="http://www.w3.org/2000/svg" viewBox="0 0 145.68 140.39"><defs><style>.cls-1{fill:#f8f9fd;}</style></defs><g id="Warstwa_2" data-name="Warstwa 2"><g id="Warstwa_1-2" data-name="Warstwa 1"><path id="path1320-2" class="cls-1" d="M105,138.73c0-1.17-2.81-1.49-8.55-1-9.06.82-11-.24-14.35-7.71-1.11-2.5-2.9-3.47-6.43-3.47-3.21,0-5.49-1.06-6.64-3.09C66.86,119.65,56,119,56,122.72c0,3.21-3.84,2.9-7.18-.6a15.82,15.82,0,0,0-7.26-3.75c-3.07-.58-5.33-2.57-7.25-6.35-2.92-5.8-8.34-7.4-12.31-3.66-1.53,1.44-2,.89-2-2.51,0-4.06-.37-4.32-5.31-3.6C4.59,103.71,2,99.77,9.6,94.54c6.28-4.31,4.5-12.35-3.87-17.5C-.15,73.43-.3,73.1.17,65,.55,58.27,1.44,56,4.6,53.66c5.36-4,5.3-10.78-.14-14.14-4.58-2.84-5.33-6.31-1.63-7.65a3.65,3.65,0,0,0,2.45-3c0-2.65,6.05-14.53,8-15.66.8-.46,3.78-.08,6.62.85,4.32,1.43,5.7,1.26,8.37-1,1.75-1.5,3.2-3.59,3.2-4.64,0-2.15,3.6-3.78,8.35-3.78a4.65,4.65,0,0,0,4.13-2.31c1.38-3.4,10.8-3,13.16.56,1.43,2.16,4.78,3.14,13.48,4,9.88.92,12.24,1.73,16.07,5.56,3.66,3.66,6.42,4.7,15.11,5.69l10.63,1.21.5,5.83c.55,6.26,4.38,9.37,20.75,16.88,6.44,2.95,7.36,4,7.36,8.3,0,3.25,1,5.3,2.86,6,2.57,1,2.5,1.23-.67,2.38-4.27,1.56-6.67,9.84-3.79,13.11,2,2.27,1.74,2.46-6.17,4.69-1.12.32-2,2-2,3.71a2.78,2.78,0,0,1-3.06,3.13c-4.46,0-6.06,10.35-2.22,14.36,2.65,2.77,2.61,3.06-.87,5.72-2,1.54-3.66,3.56-3.66,4.48a1.66,1.66,0,0,1-1.64,1.68c-2.24,0-2.07,12.86.2,15,1.34,1.27.91,2.27-1.64,3.77a7.31,7.31,0,0,0-3.46,5.47,6.27,6.27,0,0,1-3.16,5C107.54,141,105,140.9,105,138.73Z"/></g></g></svg>