<svg xmlns="http://www.w3.org/2000/svg" viewBox="0 0 161.23 148.53"><defs><style>.cls-1{fill:#f8f9fd;}</style></defs><g id="Warstwa_2" data-name="Warstwa 2"><g id="Warstwa_1-2" data-name="Warstwa 1"><path id="path1328-2" class="cls-1" d="M97.7,145.32a7.88,7.88,0,0,0-6.61-3.22c-3.38,0-4.72-.92-5.47-3.74-1.74-6.54-6.7-9.38-16.38-9.38-7.26,0-9.23-.6-11.36-3.47S53.8,122,45.68,122c-5.29,0-10.1.73-10.68,1.62s-2.59.07-4.93-2.32a12.38,12.38,0,0,0-8.75-3.93c-2.68,0-5.34-.7-5.9-1.54s-2.8-1.55-5-1.55-4-.59-4-1.31-1.47-2.9-3.27-4.86c-3.94-4.29-4.25-11.2-.63-14,1.45-1.13,5-1.87,8-1.63C17,93,17.75,91.08,18,73.42c.28-18.55,1-20,9.93-20.52,10.41-.65,16-6,13.25-12.84C38.57,33.5,41,28.25,46.81,27.62c3.8-.41,4.67-1.33,5.08-5.3.34-3.34,1.72-5.34,4.5-6.53,2.52-1.08,4-3,4-5.23C60.45,5.71,62.58,3,68,.9,72.14-.69,73.38-.4,79.19,3.58c6,4.08,7.42,4.4,16.35,3.66,5.4-.46,12.3-1,15.33-1.27,5.89-.49,7.47,1,9.12,8.4.58,2.59,2.82,5.13,5.82,6.6,4.39,2.14,4.88,3.13,4.88,9.75,0,4.05.89,8.2,2,9.22s6.6,1.85,13,1.85c10.77,0,11.12.12,12.07,4.24a39.45,39.45,0,0,0,2.75,7.7c2.64,5.15-2.52,10.15-9.09,8.79-7.74-1.62-10.78,7-4.39,12.44,1.8,1.54,3.27,4.29,3.27,6.1a7.89,7.89,0,0,0,1.8,5c1.31,1.24.87,2-1.63,2.73-1.89.57-3.45,1.85-3.47,2.86s-1.48,3.56-3.24,5.68-3.21,5-3.23,6.46-1.51,3-3.31,3.57a4.62,4.62,0,0,0-3.27,4c0,2.55-1.18,3-8,3-5.78,0-8.27.67-9,2.44-1.73,4.25-1.08,8.43,1.46,9.35,3.14,1.13,3.22,6.73.1,6.73a4.46,4.46,0,0,1-3.37-1.54c-2.2-3.36-5.67-1.27-7.28,4.38a27.77,27.77,0,0,1-4.87,9.39l-3.18,3.46Z"/></g></g></svg>