<svg xmlns="http://www.w3.org/2000/svg" viewBox="0 0 153.31 195.85"><defs><style>.cls-1{fill:#f8f9fd;}</style></defs><g id="Warstwa_2" data-name="Warstwa 2"><g id="Warstwa_1-2" data-name="Warstwa 1"><path id="path1330-2" class="cls-1" d="M68.5,193.65a45.47,45.47,0,0,0-12.34-2.2c-11.79-.21-14.26-6.73-4.43-11.7,3.36-1.7,6.36-4.36,6.68-5.92.87-4.3-6-10.27-11.86-10.33-7.89-.08-10.75-3.09-10.75-11.31V145H29.36c-3.54,0-6.9.7-7.46,1.54s-2.33,1.55-3.94,1.55c-4.52,0-9-17.66-8.49-33.17.24-6.78,1.21-12.79,2.16-13.34s1.27-2.83.6-5.42c-.61-2.42-1.84-8.23-2.71-12.9-1.12-6-2.78-9.41-5.64-11.63-5.15-4-5.18-6.89,0-6.89,5.76,0,9.08-5.44,9.08-14.91,0-4.43.74-8.49,1.64-9,2.34-1.37,2-9.63-.41-10.53-1.13-.42.36-1.26,3.3-1.87s5.74-1.72,6.23-2.46,5.25-1.35,10.59-1.35S44,24,44,23.1s3-1.54,6.65-1.54c5.91,0,6.54-.35,5.61-3.09-.72-2.15-.29-3.09,1.43-3.09a4.58,4.58,0,0,1,3.48,1.55c1.43,2.18,7.64,1.83,11.06-.63,1.59-1.13,4.58-5.1,6.66-8.82C83.11-.14,88.72-2,95,2.16a14.52,14.52,0,0,0,6.3,2.42c1.46,0,4.79,1.73,7.4,3.86s5.41,3.85,6.22,3.85,1.06,5.45.57,12.2c-.56,7.75-.24,12.8.87,13.86s1,2.48-1,4.52-2.74,5.63-2.74,12.39c0,8.25.55,10,4.08,12.89s4.09,4.64,4.09,12.95c0,8.5.55,10.14,4.84,14.47,5.18,5.24,14.78,21,14.78,24.19a4.31,4.31,0,0,0,2.23,3.2c1.23.68,3.47,3.52,5,6.3,2.47,4.56,2.5,5.3.23,7.44-3.49,3.29-3.18,5.75,1.56,12.34s5,9.68,1.8,18.26c-2.39,6.48-6.37,10.15-11,10.15-2.54,0-12.85,9.08-18.32,16.13-1.82,2.35-2.56,2.16-8.3-2.15-4.88-3.66-7.93-4.72-13.51-4.72-6.29,0-7.56.58-10,4.62s-3.72,4.6-9.33,4.51A45.27,45.27,0,0,1,68.5,193.65Z"/></g></g></svg>