<svg xmlns="http://www.w3.org/2000/svg" viewBox="0 0 110.35 171.31"><defs><style>.cls-1{fill:#f8f9fd;}</style></defs><g id="Warstwa_2" data-name="Warstwa 2"><g id="Warstwa_1-2" data-name="Warstwa 1"><path id="path1322-2" class="cls-1" d="M36.64,169.62c-.61-.93-4-1.43-7.45-1.11-4,.35-6.35-.08-6.35-1.16s-2.86-2.53-6.35-3.52C8,161.44,6,158.93,8.09,153.65c2.95-7.31,2-12.34-3.23-17.07C2.16,134.14,0,131.41,0,130.51s2.28-4.42,5-7.82l5-6.17L8.87,100.31c-.75-10.72-2.16-18.23-4.16-22.2-3-5.87-3-6.07.19-10.27C8.53,63,9.17,54.07,6.1,51.17,4.49,49.64,4.57,49,6.51,47.8a12.13,12.13,0,0,1,5.18-1.48c3.59,0,9.52-7.23,9.52-11.54,0-1.86,1.84-5,4.08-7,3.7-3.28,4.48-3.42,8.27-1.5S38.5,28,45.11,24.61c4-2.08,8.54-5,10-6.48a9.16,9.16,0,0,1,5.43-2.7,7.51,7.51,0,0,0,4.85-2.31c1.12-1.28,4.06-2.32,6.53-2.32a61.85,61.85,0,0,0,9.61-1c4.3-.81,5.11-1.67,5.11-5.4C86.61,1.59,87.46,0,89,0c1.88,0,2.2,1.69,1.55,8.1-1.56,15.26-2.4,18-6.45,21a15.18,15.18,0,0,0-5,7.75c-.55,2.61-2,5.55-3.26,6.52-2.76,2.16-3,7.84-.34,10.3,1.11,1,1.85,6,1.76,11.79-.1,6.43.59,10.57,2,11.63,1.53,1.2,1.74,3.45.76,8.2a83.06,83.06,0,0,0-1.41,13.07c-.06,5.8.75,7.24,7.31,13,4.06,3.54,7.84,8.13,8.39,10.2.9,3.4,1.73,3.73,8.06,3.25,8.53-.64,9.88,1.82,6,11-2.7,6.49-5.35,6.88-5.35.79,0-2-.76-4.12-1.69-4.67-3.21-1.87-15.19,1.17-19.08,4.84-2.15,2-4.51,3.69-5.25,3.69s-1.84,2.84-2.43,6.32c-.75,4.44-2,6.57-4.22,7.11-1.77.44-4,3.09-5,6-2.2,6.3-6.76,7-9.45,1.38-1-2.12-2.84-3.86-4-3.86-3,0-6.08,3.19-6.08,6.25,0,2.39-4.8,7.64-7,7.64C38.2,171.31,37.25,170.55,36.64,169.62Z"/></g></g></svg>