<svg xmlns="http://www.w3.org/2000/svg" viewBox="0 0 147.98 128.89"><defs><style>.cls-1{fill:#f8f9fd;}</style></defs><g id="Warstwa_2" data-name="Warstwa 2"><g id="Warstwa_1-2" data-name="Warstwa 1"><path id="path1340-2" class="cls-1" d="M59.46,126.89c-3-3.07-4.32-3.15-11.35-.63-2.69,1-2.91.8-1.23-.9,1.12-1.14,2-5.41,2-9.48,0-7.4,0-7.41-5.57-7.41-6.8,0-14-7.15-14-13.85,0-2.44-1.07-4.73-2.45-5.23A4.24,4.24,0,0,1,24.4,85.6c0-7.14-3.52-12.39-9.93-14.8-5.91-2.24-6.42-2.9-6.42-8.35,0-4.29-1.11-6.9-4-9.49L0,49.4,3.62,45c2-2.44,6.37-7.26,9.74-10.72C19.83,27.62,21.15,23,17,21.47,12.5,19.84,26.17,9.7,32.85,9.7c6.95,0,14.16-3,15.32-6.43C48.84,1.33,51.48.57,58.92.18c13.3-.7,14.53.18,14.53,10.42,0,8,2.83,14.94,7.32,18,2.81,1.9,14,1.31,18.58-1,4.34-2.17,25.22-8.62,27.9-8.62,2,0,3.75,9.59,4.05,21.79.15,6,1.17,11.26,2.46,12.73,1.45,1.65,1.58,2.52.38,2.52-3.29,0-2.16,10.53,1.32,12.28,2.08,1.06,3.8,4.57,5.07,10.34a95.54,95.54,0,0,0,5.06,15.65c1.73,3.8,2.75,7.3,2.27,7.75s-5.66.7-11.49.55c-10.12-.26-10.61-.11-10.61,3.35,0,7.88-10.86,11.65-14.6,5.07-1.91-3.37-3.13-3.67-15.63-3.84-12.74-.16-13.73.06-16.23,3.66-1.46,2.11-4,3.84-5.53,3.84-1.8,0-4.44,2.88-7.06,7.72C62.52,130.06,62.5,130.07,59.46,126.89Z"/></g></g></svg>