<svg xmlns="http://www.w3.org/2000/svg" viewBox="0 0 617.75 574.36"><defs><style>.cls-1{fill:#f8f9fd;}</style></defs><g id="Warstwa_2" data-name="Warstwa 2"><g id="Warstwa_1-2" data-name="Warstwa 1"><path id="path1364-2" class="cls-1" d="M536.21,571.44c-4.94-1.71-10.46-3.53-12.26-4a34.05,34.05,0,0,1-7.36-3.57,49.39,49.39,0,0,0-10.14-4.49c-3.47-1.06-6.49-3.16-7.08-4.92-1.7-5.06-12-13.72-16.25-13.72-2.17,0-4.43-.75-5-1.68s-4.67-1.47-9.5-1.2c-4.62.27-9.54-.2-10.94-1-2.88-1.7-8.66-15.95-11.43-28.14-1.17-5.17-3-8.7-5-9.7-3.73-1.89-4.1-5.42-.67-6.66a3.72,3.72,0,0,0,2.45-3.07,6.44,6.44,0,0,0-2.45-4.1q-2.46-1.92-2.46-10.42a58.17,58.17,0,0,0-1.84-14.33c-1.7-5.34-1.46-6.37,2.89-12.48,2.6-3.66,9-9.48,14.19-12.92s11.08-8.73,13-11.76c11.72-17.94,13.38-19.79,17.8-19.84,2.42,0,4.86-.74,5.41-1.59s2.44-1.54,4.18-1.54c2.69,0,3.18,1.1,3.18,7.16,0,8.23,2.86,11.23,10.78,11.31,4.37,0,10.47,3.87,10.47,6.58,0,.48-2.57,2.31-5.72,4.07-4.72,2.63-5.72,4.08-5.72,8.33,0,6.79,2.5,8.85,10.75,8.85a41.3,41.3,0,0,1,12.7,2.31c3.23,1.28,10.14,2.32,15.35,2.32,8.13,0,9.7-.48,11.08-3.35,3.55-7.36,10.89-7.55,19.3-.49l4.6,3.86-7.3,9.07A139.85,139.85,0,0,0,563.92,473a17.85,17.85,0,0,1-3.19,4.42C559,478.58,546,499.13,546,500.72a1.39,1.39,0,0,1-1.37,1.39c-.75,0-3.85,4.48-6.89,10l-5.52,10,2.93,7.7A29.07,29.07,0,0,1,537,545.88c-1.3,9.78,2,17.14,8.5,18.67,2.91.69,3.8,2,3.8,5.5C549.29,575.48,548.22,575.6,536.21,571.44Z"/><path id="path1340-2" class="cls-1" d="M362,560.67c-2.95-3.07-4.33-3.15-11.36-.62-2.69,1-2.9.8-1.22-.9,1.12-1.15,2-5.42,2-9.49,0-7.4,0-7.41-5.58-7.41-6.79,0-14-7.14-14-13.84,0-2.44-1.08-4.74-2.45-5.24a4.22,4.22,0,0,1-2.45-3.79c0-7.14-3.52-12.39-9.93-14.8-5.91-2.24-6.42-2.9-6.42-8.35,0-4.29-1.11-6.9-4-9.48l-4-3.57,3.61-4.43c2-2.44,6.38-7.26,9.75-10.72,6.47-6.63,7.79-11.28,3.63-12.78-4.49-1.63,9.18-11.77,15.86-11.77,7,0,14.15-3,15.32-6.43.66-1.93,3.31-2.69,10.75-3.08,13.3-.7,14.52.18,14.52,10.41,0,8,2.84,14.94,7.32,18,2.82,1.91,14,1.31,18.59-1,4.34-2.17,25.22-8.63,27.9-8.63,2,0,3.75,9.59,4.05,21.79.15,6,1.17,11.26,2.46,12.74,1.45,1.64,1.58,2.51.38,2.51-3.29,0-2.16,10.53,1.31,12.29,2.09,1.05,3.8,4.56,5.08,10.33a95.65,95.65,0,0,0,5.06,15.66c1.73,3.8,2.75,7.29,2.26,7.74s-5.65.7-11.48.56c-10.12-.27-10.61-.11-10.61,3.34,0,7.88-10.87,11.66-14.6,5.07-1.91-3.37-3.13-3.67-15.64-3.83-12.74-.17-13.72.06-16.22,3.66-1.47,2.1-4,3.83-5.54,3.83-1.8,0-4.43,2.88-7.06,7.72C365.07,563.84,365.05,563.85,362,560.67Z"/><path id="path1338-2" class="cls-1" d="M297.51,540.83c0-.78-2.9-4-6.46-7.19-5.38-4.81-6.54-6.94-6.95-12.7-.3-4.3-1.41-7.33-2.94-8-12.66-5.51-12.26-5.05-12.26-14,0-8.2-.12-8.42-4.9-8.91-2.7-.28-5.6-1.15-6.46-1.93s-3.28-1.42-5.39-1.42c-4.63,0-18.56-13.24-17.27-16.4.47-1.17,2.55-2.12,4.62-2.12s7.57-1.87,12.22-4.14c7.56-3.7,8.35-4.57,7.47-8.1-2.8-11.28-2.85-14.92-.27-16.95,1.45-1.13,2.63-3,2.63-4.14s2.2-3.16,4.9-4.48,4.91-2.82,4.91-3.33c0-1.59-7.14-12.07-8.62-12.65-.77-.3-.21-1.78,1.23-3.28s3.06-5.43,3.6-8.72,2.43-7.3,4.2-8.9c2.56-2.32,3.06-4.32,2.41-9.69-.93-7.8,1.27-9.76,10.92-9.76,4.39,0,6.45.94,8.5,3.89,2.35,3.4,3.76,3.86,11.12,3.63,9.95-.3,15.2,2.3,16.58,8.26.8,3.45,1.9,4.29,5.6,4.29,2.58,0,5,1,5.54,2.31a3.89,3.89,0,0,0,3.29,2.31c1.78,0,2.14,1.45,1.49,6-.76,5.37-.26,6.53,4.63,10.66,5.27,4.44,5.38,4.75,2.65,7.6-3.49,3.64-3.68,7.92-.39,9.11,6.92,2.5-3.09,8.95-11.58,7.46-4-.72-6,.25-12.54,6.29-8.28,7.61-9.21,9.53-5.31,10.94,3.62,1.31,3,3.16-2.86,9.05-13.57,13.52-15.59,18.95-8.67,23.24,3.12,1.92,4.11,4,4.5,9.55.46,6.56.91,7.21,6.2,8.88,4.28,1.36,6.27,3.21,8,7.4,2.86,7.1,1.76,9.7-5.47,13a16.89,16.89,0,0,0-8.54,8.48c-2,4.37-3.72,5.88-6.52,5.88C299.21,542.24,297.51,541.61,297.51,540.83Z"/><path id="path1336-2" class="cls-1" d="M219.32,480c-1.95-2-3.55-4.37-3.55-5.35s-1.48-2.52-3.27-3.43-3.27-2.38-3.27-3.28,1.47-2,3.27-2.44c2.42-.6,3.27-2.1,3.27-5.86v-5.05l-11.28-.6c-10.61-.56-11.65-1-17.8-6.76-6.65-6.28-10.49-8.6-19.05-11.54l-4.8-1.65,5.21-3c3-1.72,5.21-4.28,5.21-6s1.3-3.19,3.4-3.5c3.15-.46,7.68-9.16,10.73-20.64.47-1.74,4.1-6.51,8.07-10.6s7.23-8.71,7.23-10.28,1.47-3.59,3.27-4.5c3.48-1.76,4.51-6.17,1.44-6.17-1.27,0-1.21-.72.2-2.32,1.12-1.27,4.15-2.31,6.74-2.31,3.61,0,4.7.71,4.7,3.08,0,2.67,1.09,3.09,8,3.09,5.1,0,8.71-.84,10-2.31,2.28-2.6,12.34-3.16,13.9-.78.56.85,3.43,1.55,6.38,1.55,6.05,0,10.79,3.91,10.79,8.9,0,1.8.73,3.69,1.63,4.22,2.55,1.48,1.94,5-1.4,8-1.67,1.52-3.48,5.45-4,8.74s-2.12,7.16-3.5,8.61c-2.62,2.73-3.5,9.33-1.25,9.33.71,0,2.53,2,4,4.4,2.7,4.31,2.67,4.45-1.28,6.14-2.22,1-4,2.71-4,3.9s-1.2,3.1-2.66,4.25c-2.16,1.7-2.48,4-1.73,12.53.72,8,.44,10.46-1.21,10.46-1.17,0-4,1.39-6.29,3.08a17.9,17.9,0,0,1-9.1,3.09c-5.27,0-7.82,3.67-6.16,8.88.86,2.72-4,9.64-6.75,9.64C223.55,483.6,221.28,482,219.32,480Z"/><path id="path1334-2" class="cls-1" d="M140.61,465.9c-1.83-1.84-3.32-4.95-3.32-6.91,0-3.2-5.38-10.36-14.69-19.55-4.62-4.54-4.11-7.63,1.6-9.87,4.25-1.66,4.91-2.71,4.91-7.84,0-4.11-1.1-6.89-3.58-9.07-3.83-3.37-8.67-4.13-10.32-1.6-2.94,4.5-20.43-1.54-20.43-7.06,0-1.46-1.8-2.2-5.38-2.2-12.05,0-27.32-11.84-27.32-21.18,0-3-.77-3.66-3.68-3.38a19.78,19.78,0,0,1-8.3-1.73c-6.25-2.84-10-.48-10.6,6.76-.44,4.81-1.09,5.63-4.5,5.63-4.83,0-5-1.45-.78-6.52,1.77-2.12,4.43-7.25,5.9-11.4a141.87,141.87,0,0,1,5.78-13.62c3.57-7,3.87-10.32,1.17-12.87-1.45-1.37-1.46-2.75,0-5.71,1.91-4,5.83-5.16,7.67-2.35,3.09,4.71,15.53-.57,15.53-6.59,0-4.29,3.2-4.58,4.87-.45.87,2.17,2.53,3.94,3.68,3.93,6-.06,9.43-2.22,11.1-7,1-2.85,3.23-5.6,5-6.12,2.15-.65,3.5-2.91,4.21-7.1s1.7-5.91,3.27-5.35c1.22.45,2.23.14,2.23-.68a17,17,0,0,1,.22-2.66c.4-2.12,5.7-4.81,10.44-5.3,4.35-.45,4.8,0,6.12,6.17,1.84,8.56,5.65,8.21,10.3-.95l3.39-6.65,6.83,7c3.76,3.85,6.84,8.4,6.84,10.1,0,2,3,5,8.79,8.62,11.78,7.38,24.18,8.84,33.07,3.89l6.08-3.39,3.41,3.37c2.41,2.37,2.82,3.57,1.38,4.08-1.13.4-2,2.31-2,4.26,0,2.9,1.31,3.86,7.2,5.26,7.1,1.69,7.21,1.82,7.88,9.06a73.19,73.19,0,0,0,1.38,9.66c.52,1.71-.58,2.29-4.2,2.21-5.44-.12-8.86,3-8.94,8.12,0,1.86-.79,3.81-1.69,4.33A4.8,4.8,0,0,0,199.4,377c0,1.55-3.25,6.16-7.23,10.25s-7.61,8.85-8.07,10.6c-3,11.47-7.58,20.18-10.74,20.63-2.11.31-3.39,1.65-3.39,3.55s-2.05,4.15-4.89,5.68-4.9,3.55-4.9,4.67-1.12,3.08-2.47,4.35c-3.79,3.58-3,6.65,3.27,12,7.17,6.2,7.2,8.19.15,9.43-3.06.55-8.18,3.25-11.38,6l-5.82,5Z"/><path id="path1332-2" class="cls-1" d="M386.58,459.26c-4.5-3-7.32-10-7.32-18,0-10.61-2-11.83-17.33-10.76-12.15.85-17.75-.84-14.13-4.26s2.36-10-3-14.28c-4.76-3.77-4.93-4.29-3.15-9.4,1-3,2.45-5.4,3.14-5.4,1.63,0,5-7.12,5-10.53,0-2.18,1.19-2.56,6.54-2.08l6.54.59V379c0-4-.84-6.48-2.43-7.05a2.4,2.4,0,0,1-1.54-3,1.55,1.55,0,0,1,.08-.23c.69-1.69,3.28-2.37,9-2.37,6.81,0,8-.45,8-3a4.59,4.59,0,0,1,3.27-4,4.5,4.5,0,0,0,3.27-3.77c0-6.9,8.7-7.53,10.5-.77a6.79,6.79,0,0,0,4.87,4.64,18.4,18.4,0,0,1,7.5,4.85c3.3,3.58,4.43,3.86,12.62,3.06,7.76-.76,9.11-.49,9.77,1.91.45,1.6,3.43,3.54,7,4.54s7.12,2.8,8.24,4.07c2.62,3,10.45,3,13.07,0,1.12-1.27,4.36-2.31,7.2-2.31,5.08,0,5.22.2,9.09,13.21s3.88,13.29.9,18.13c-1.67,2.71-4,5.49-5.21,6.17s-3.62,3.88-5.36,7.12c-1.91,3.53-6.38,7.81-11.16,10.71-8.21,5-16.71,12.91-16.71,15.61,0,.84-2,1.95-4.5,2.47-10.18,2.13-27.67,7.25-31.72,9.29C393.88,460.64,389.19,461,386.58,459.26Z"/><path id="path1330-2" class="cls-1" d="M532.94,445.78a45.47,45.47,0,0,0-12.34-2.2c-11.79-.21-14.26-6.72-4.43-11.69,3.36-1.7,6.36-4.37,6.68-5.93.87-4.3-6-10.27-11.86-10.33-7.89-.08-10.75-3.08-10.75-11.31v-7.16H493.8c-3.54,0-6.9.7-7.46,1.55s-2.33,1.54-3.94,1.54c-4.52,0-9-17.66-8.49-33.17.24-6.78,1.21-12.78,2.16-13.34s1.27-2.82.6-5.41c-.61-2.43-1.84-8.23-2.71-12.9-1.12-6-2.78-9.42-5.64-11.64-5.15-4-5.18-6.88-.05-6.88,5.76,0,9.08-5.45,9.08-14.92,0-4.43.74-8.48,1.64-9,2.34-1.36,2-9.63-.41-10.53-1.13-.41.36-1.26,3.3-1.87s5.74-1.72,6.23-2.46,5.25-1.34,10.59-1.34,9.71-.69,9.71-1.55,3-1.54,6.65-1.54c5.91,0,6.54-.35,5.61-3.09-.72-2.15-.29-3.08,1.43-3.08a4.54,4.54,0,0,1,3.48,1.54c1.43,2.18,7.64,1.83,11.06-.62,1.59-1.14,4.58-5.11,6.66-8.83,4.25-7.62,9.86-9.46,16.14-5.31a14.63,14.63,0,0,0,6.3,2.41c1.46,0,4.79,1.74,7.4,3.86s5.41,3.86,6.22,3.86,1.06,5.44.57,12.2c-.56,7.74-.24,12.8.87,13.85s1,2.48-1,4.52-2.74,5.64-2.74,12.39c0,8.25.55,10,4.08,12.89s4.09,4.64,4.09,13c0,8.5.55,10.15,4.84,14.47,5.18,5.24,14.78,20.95,14.78,24.2a4.31,4.31,0,0,0,2.23,3.2c1.23.67,3.47,3.51,5,6.3,2.47,4.56,2.5,5.3.23,7.44-3.49,3.29-3.18,5.74,1.56,12.33s5,9.69,1.8,18.27c-2.39,6.47-6.37,10.14-11,10.14-2.54,0-12.85,9.08-18.32,16.13-1.82,2.36-2.56,2.16-8.3-2.14-4.88-3.66-7.93-4.73-13.51-4.73-6.29,0-7.56.58-10,4.62s-3.72,4.6-9.33,4.51A45.27,45.27,0,0,1,532.94,445.78Z"/><path id="path1328-2" class="cls-1" d="M336.58,394.51a7.89,7.89,0,0,0-6.61-3.22c-3.38,0-4.72-.92-5.48-3.74-1.73-6.53-6.7-9.37-16.37-9.37-7.26,0-9.23-.6-11.36-3.48s-4.08-3.47-12.2-3.47c-5.3,0-10.1.73-10.69,1.62s-2.58.07-4.92-2.31a12.35,12.35,0,0,0-8.75-3.94c-2.69,0-5.34-.69-5.9-1.54s-2.81-1.55-5-1.55-4-.58-4-1.3-1.47-2.91-3.27-4.87c-3.94-4.29-4.25-11.2-.63-14,1.45-1.14,5-1.87,8-1.64,6.51.53,7.27-1.4,7.54-19.06.27-18.55,1-20,9.93-20.52,10.41-.64,16-6,13.24-12.84-2.62-6.55-.25-11.81,5.62-12.44,3.79-.41,4.67-1.32,5.08-5.3.34-3.34,1.72-5.33,4.5-6.53,2.52-1.08,4-3,4-5.22,0-4.86,2.16-7.57,7.6-9.66,4.13-1.6,5.36-1.3,11.18,2.68s7.41,4.4,16.35,3.65l15.33-1.27c5.89-.48,7.47,1,9.12,8.4.58,2.59,2.82,5.13,5.82,6.6,4.38,2.14,4.88,3.13,4.88,9.75,0,4,.88,8.2,2,9.22s6.61,1.85,13.05,1.85c10.77,0,11.12.12,12.06,4.25a40,40,0,0,0,2.76,7.7c2.64,5.15-2.53,10.14-9.09,8.78-7.75-1.62-10.78,7-4.39,12.45,1.8,1.53,3.27,4.28,3.27,6.1a7.89,7.89,0,0,0,1.8,5c1.31,1.23.86,2-1.63,2.72-1.89.57-3.46,1.85-3.48,2.86s-1.47,3.56-3.23,5.68-3.21,5-3.23,6.46-1.51,3-3.31,3.57a4.61,4.61,0,0,0-3.27,4c0,2.54-1.18,3-8,3-5.79,0-8.27.68-9,2.44-1.73,4.26-1.08,8.43,1.46,9.35,3.13,1.14,3.21,6.73.1,6.73a4.43,4.43,0,0,1-3.37-1.54c-2.2-3.36-5.68-1.26-7.29,4.38a27.5,27.5,0,0,1-4.87,9.39l-3.17,3.46Z"/><path id="path1324-2" class="cls-1" d="M220.91,360.5a106.25,106.25,0,0,1-3-14.67c-.83-7.27-.93-7.37-8.41-9.15-4.16-1-6.66-2.08-5.56-2.43,3.38-1.06,2.26-8.86-1.78-12.45-4.79-4.25-7.29-4.22-12.19.12-6.44,5.71-17.3,4.83-28.72-2.33-6.25-3.92-9.26-6.84-9.26-9,0-1.74-3.62-6.78-8.05-11.19s-8.57-10-9.21-12.4c-1.1-4.16-1.5-4.32-8.1-3.39-6.37.9-7,.67-7.94-2.72-.54-2-4.3-6.6-8.37-10.13-8.08-7-8.45-8.54-5.52-22.34,1.66-7.77,1.54-9.11-1-11.8-2.41-2.51-2.55-3.44-.8-5.42s1.71-3.65.07-8.9a70.92,70.92,0,0,0-3.44-9.08,3.09,3.09,0,0,1,.8-4.3h0c1.22-1,2.7-4.18,3.29-7.16s2.17-5.82,3.5-6.31c3.42-1.24,7.21-8.75,7.21-14.31,0-4.21.52-4.71,4.93-4.71,6.33,0,17.63-6.71,19.61-11.63.85-2.1,2.47-3.8,3.62-3.8,3.32,0,14.35-11.62,14.35-15.13a4.56,4.56,0,0,0-3.06-4.1,16.91,16.91,0,0,1-6-4c-2.84-3-2.8-3.05,1-3.05,6.85,0,14.27-5.42,14.85-10.82.52-4.74.58-4.77,3.79-2,9,7.86,14,10.08,20.45,9.11,7.08-1.07,10.39,1.42,6,4.47-4.26,2.95-3.46,11,1.39,14,5.13,3.17,5.22,6.38.22,8.53-3.37,1.45-4,3.05-4.83,12.62-1.06,11.84-.29,13.7,7.14,17.33,6.15,3,7.11,7.69,2.2,10.73-5.72,3.54-5.59,12.7.2,14.07a18.8,18.8,0,0,0,7.36.17c2.58-.63,3.24,0,3.24,3,0,4.78,4.14,6.35,8,3.05,3.32-2.84,5.38-1.5,7.43,4.83.75,2.31,3.17,4,7.37,5,3.44.87,7.16,2.62,8.27,3.89,2.74,3.11,13.07,3.1,13.07,0,0-3.29,2.88-2.87,5.29.77a7.91,7.91,0,0,0,6.59,3.09c3.22,0,5,1,6,3.47,2.73,6.74,7.58,9.38,15.09,8.25,4.48-.68,7.26-.42,8,.73,1.55,2.37-1.84,11-5.27,13.42a9.93,9.93,0,0,0-3.27,6.16c-.4,3.32-1.55,4.39-5.36,5-6,1-9,8.54-6.24,15.54,1.55,3.88,1.3,4.67-2.21,6.84a12.85,12.85,0,0,1-9.33,1.5c-8.29-1.47-9.75,1.46-10.8,21.67-.5,9.62-1.39,17.94-2,18.49s-2.63.09-4.55-1c-3.15-1.84-3.94-1.55-8.14,3-2.56,2.76-5.48,5-6.49,5-2.47,0-2.3,2.41.35,4.92a15.76,15.76,0,0,1,3.3,6.28c.62,2.33,1.85,4.23,2.73,4.23a1.58,1.58,0,0,1,1.6,1.54,1.66,1.66,0,0,1-1.75,1.55c-1,0-2.85,1-4.2,2.31a11.58,11.58,0,0,1-6.87,2.32C223.58,367.84,222.78,367,220.91,360.5Z"/><path id="path1322-2" class="cls-1" d="M57.89,332.2c-.61-.92-4-1.43-7.45-1.11-3.95.35-6.35-.08-6.35-1.16s-2.86-2.53-6.35-3.52c-8.46-2.39-10.53-4.9-8.4-10.18,2.95-7.31,2-12.34-3.23-17.06-2.7-2.44-4.88-5.18-4.86-6.08s2.28-4.42,5-7.82l5-6.17-1.12-16.21c-.75-10.72-2.16-18.23-4.16-22.2-3-5.87-3-6.07.19-10.27,3.63-4.8,4.27-13.77,1.2-16.67-1.61-1.53-1.53-2.21.41-3.37a12.13,12.13,0,0,1,5.18-1.48c3.59,0,9.52-7.23,9.52-11.54,0-1.86,1.84-5,4.08-7,3.7-3.28,4.48-3.42,8.27-1.5s4.94,1.72,11.55-1.67c4-2.08,8.54-5,10-6.48a9.16,9.16,0,0,1,5.43-2.7,7.47,7.47,0,0,0,4.85-2.31c1.12-1.28,4.06-2.32,6.53-2.32a61.85,61.85,0,0,0,9.61-1c4.3-.81,5.11-1.67,5.11-5.4,0-2.85.85-4.44,2.38-4.44,1.88,0,2.2,1.69,1.55,8.1-1.56,15.26-2.4,18-6.45,21a15.22,15.22,0,0,0-5,7.75C99.75,202,98.28,205,97,206c-2.76,2.16-3,7.84-.34,10.3,1.11,1.05,1.85,6,1.76,11.79-.1,6.43.59,10.57,2,11.63,1.53,1.2,1.74,3.45.76,8.2a83.06,83.06,0,0,0-1.41,13.07c-.06,5.8.75,7.24,7.31,12.95,4.06,3.54,7.84,8.13,8.39,10.2.9,3.4,1.73,3.73,8.06,3.25,8.53-.64,9.88,1.82,6,11-2.7,6.49-5.35,6.88-5.35.79,0-2-.76-4.12-1.69-4.67-3.21-1.87-15.19,1.17-19.08,4.84-2.15,2-4.51,3.69-5.25,3.69s-1.84,2.84-2.43,6.32c-.75,4.44-2,6.57-4.22,7.11-1.77.44-4,3.09-5,6-2.2,6.3-6.76,7-9.45,1.38-1-2.12-2.84-3.86-4-3.86-3,0-6.08,3.19-6.08,6.25,0,2.39-4.8,7.64-7,7.64C59.45,333.89,58.5,333.13,57.89,332.2Z"/><path id="path1320-2" class="cls-1" d="M299.14,245.71c0-1.16-2.81-1.48-8.55-1-9.06.82-11-.25-14.36-7.71-1.1-2.5-2.9-3.48-6.42-3.48-3.22,0-5.49-1.05-6.64-3.08-2.18-3.85-13.08-4.49-13.08-.78,0,3.22-3.84,2.9-7.19-.59a15.69,15.69,0,0,0-7.25-3.75c-3.07-.58-5.34-2.57-7.25-6.35-2.93-5.8-8.34-7.4-12.32-3.66-1.52,1.44-2,.88-2-2.52,0-4.05-.38-4.31-5.31-3.6-10.09,1.46-12.68-2.47-5.08-7.7,6.27-4.32,4.5-12.35-3.88-17.5-5.87-3.61-6-3.95-5.56-12.08.39-6.7,1.28-9,4.44-11.3,5.36-4,5.3-10.78-.14-14.15-4.59-2.83-5.33-6.3-1.63-7.64a3.65,3.65,0,0,0,2.45-3c0-2.65,6.05-14.54,8-15.66.8-.47,3.79-.08,6.63.85,4.32,1.42,5.69,1.25,8.36-1,1.76-1.5,3.2-3.59,3.2-4.64,0-2.15,3.6-3.78,8.36-3.78a4.66,4.66,0,0,0,4.13-2.32c1.38-3.39,10.8-3,13.15.56,1.43,2.16,4.78,3.15,13.49,4,9.88.92,12.24,1.73,16.06,5.55,3.67,3.67,6.43,4.7,15.12,5.7l10.62,1.21.51,5.83c.55,6.26,4.38,9.37,20.75,16.88,6.44,3,7.35,4,7.35,8.3,0,3.25,1,5.3,2.87,6,2.57,1,2.5,1.22-.67,2.38-4.27,1.56-6.67,9.84-3.79,13.11,2,2.27,1.73,2.46-6.17,4.69-1.12.31-2,2-2,3.71a2.78,2.78,0,0,1-3.06,3.13c-4.46,0-6.06,10.35-2.22,14.35,2.65,2.77,2.61,3.07-.87,5.73-2,1.54-3.66,3.55-3.66,4.48a1.67,1.67,0,0,1-1.64,1.68c-2.24,0-2.07,12.86.19,15,1.35,1.27.92,2.26-1.63,3.77a7.26,7.26,0,0,0-3.46,5.47,6.23,6.23,0,0,1-3.17,5C301.67,247.94,299.14,247.88,299.14,245.71Z"/><path id="path1318-2" class="cls-1" d="M547.5,241.57c-1.35-1.54-5-2.32-10.85-2.32-7.39,0-10.25-.9-17.67-5.54-4.87-3.06-9.27-6.58-9.78-7.83-1.07-2.62,1.68-8.23,4-8.23,2.54,0,1.76-3.56-1.69-7.72-1.76-2.12-3.21-5.42-3.23-7.33,0-3.51-.82-3.9-8.21-4.12-2.95-.09-4-.88-3.61-2.83.38-2.17-.72-2.7-5.62-2.7-10.26,0-20.2-8.42-20.2-17.1,0-3-6.44-9.85-12.21-13-2.3-1.26-3.05-4.41-3.72-15.64l-.85-14.08,6.74-1.07c3.72-.59,7.11-1.63,7.56-2.31s4.21-1.71,8.39-2.3c7.77-1.1,9.53-2.36,20.21-14.45,3.13-3.54,6.49-6.44,7.46-6.44,3.1,0,11-9,13.28-15,3-8.2,2.73-10.52-1.68-13.24-2.83-1.76-4.08-4.27-4.71-9.49-.57-4.83-2.06-8.09-4.66-10.22l-3.82-3.13L510.17,49c4.13-3.56,7.95-7.69,8.48-9.18,1.36-3.84,6.39-3.34,11.53,1.16,2.43,2.12,5.14,3.86,6,3.86s3.2,1.39,5.13,3.08S546.07,51,547.56,51c6.33,0,13.3,14.36,11.87,24.44-.57,4-.27,6.43.81,6.43,2.89,0,5.42,10,4.27,16.81-.8,4.74-.43,7.12,1.44,9.08,1.39,1.47,3.06,5.36,3.71,8.67a46.34,46.34,0,0,0,5,12.34c2.12,3.49,3.85,7.76,3.87,9.49s1.51,5.9,3.34,9.26c3.93,7.24,9.05,25.64,10.66,38.3,1.46,11.53-1.22,19.83-7.2,22.28-8.31,3.4-15.33,7.86-17.93,11.41a54.08,54.08,0,0,1-4.73,5.62,8,8,0,0,0-2.11,5c0,1.63-.6,3-1.33,3s-2.56,2.43-4.06,5.4C552.19,244.41,550.57,245.06,547.5,241.57Z"/><path id="path1316-2" class="cls-1" d="M22.84,208c0-.84-5.13-6.36-11.39-12.27S0,184,0,182.79s3.26-5.5,7.3-9.58,7.36-8.19,7.36-9.13,2-5.48,4.35-10.09c3.86-7.44,4.14-9,2.53-14.18a102.4,102.4,0,0,1-2.85-12.74c-.57-3.82-1.56-10.41-2.2-14.66s-2.06-9.22-3.13-11.06c-1.2-2.08-1.56-6-.92-10.42,1-6.66,1.32-7.08,6.12-7.14a44.06,44.06,0,0,0,11.63-2.43c3.6-1.3,9.85-3.36,13.9-4.58a51,51,0,0,0,11.44-5C60.16,68.59,68.9,66.12,86.38,63c7.49-1.32,13.41-3.34,15.64-5.31,2.54-2.26,5.76-3.19,11-3.19,13.46,0,25-7.1,32.21-19.76,2-3.5,9.76-8,13.79-8,3.16,0,5.64,6.67,6.42,17.24.59,7.95.3,8.9-3.15,10.38-4.72,2-5.08,8.22-.71,12.34,2.42,2.29,2.91,4.4,2.25,9.88-.71,6-.33,7.21,2.64,8.71,3.89,2,4.87,9.36,1.23,9.36-1.57,0-2.49,3-3.11,10.37-.48,5.7-1.69,10.62-2.67,10.93s-1.8,2.54-1.8,5c0,5.66-6.7,10.78-14.12,10.78-7.84,0-7.41,4.85.95,10.57l6.45,4.41-6.11,5.63c-3.36,3.1-7,5.63-8.13,5.63s-2.7,1.71-3.54,3.8c-1.86,4.6-13.38,12.11-17.46,11.37-2.38-.43-2.84-1.78-2.44-7.08l.5-6.55h-5.84c-5.35,0-5.85.38-5.85,4.44,0,3.74-.81,4.59-5.11,5.4a63.23,63.23,0,0,1-9.61,1c-2.47,0-5.42,1-6.54,2.31a7.63,7.63,0,0,1-5,2.32,7.65,7.65,0,0,0-5.14,2.7c-4,5-11.89,7.81-19.67,7-6.67-.71-7.59-.38-10.81,3.88-1.93,2.57-3.51,5.68-3.51,6.92,0,3.44-6.42,10.38-9.6,10.38a8,8,0,0,0-4.78,1.86C23.72,208.66,22.84,208.79,22.84,208Z"/><path id="path1314-2" class="cls-1" d="M359.69,163.94a27.56,27.56,0,0,0-9.81-1.06c-7,.55-11.5-3.06-11.51-9.19,0-3.77-1.56-5-13.9-10.94-13.88-6.69-13.89-6.7-13.89-12.78s-.31-6.33-7.63-8.36c-3.42-.94-.37-6.58,4.61-8.53,3.28-1.28,5.14-3.3,5.77-6.3.6-2.81,2-4.4,3.77-4.4,4,0,14.74-10,14.74-13.7s-1.89-5-8.74-6.28c-3.64-.7-5.27-2.1-6.18-5.3-.68-2.39-2.37-5.15-3.76-6.13-2.61-1.84-1.91-8.73.88-8.73.8,0,1.45-2.77,1.45-6.17,0-5.53.42-6.17,4-6.17,6.11,0,15.51-5,15.56-8.24,0-2.52,1.14-2.75,10.26-2,5.62.43,14.63,1.46,20,2.29,31.85,4.9,40,5.6,64.58,5.48,14.83-.07,34-.92,42.51-1.9s21.05-2.15,27.8-2.62L512.51,42l-6.13,5.1c-7.22,6-7.78,10.35-2.05,15.76,3,2.84,4.09,5.5,4.09,10.07,0,4.83.86,6.74,3.88,8.61,3.57,2.21,3.72,2.81,1.93,7.74-2.23,6.11-7.6,12-14.86,16.2-2.76,1.61-7.4,6.06-10.31,9.89-4.09,5.37-6.89,7.36-12.18,8.66-3.79.92-12,3.46-18.33,5.63s-14.9,4.27-19.13,4.67-8.56,1.71-9.6,2.9-4.88,2.17-8.82,2.17c-4.82,0-7.79.93-9.86,3.09-1.63,1.7-4.36,3.09-6.08,3.09-4.53,0-9.45,2.84-9.45,5.45,0,1.64-1.95,2.26-7.1,2.26-7.51,0-11.18,2.45-13.25,8.88-.87,2.68-2.3,3.45-6.32,3.37A33.39,33.39,0,0,1,359.69,163.94Z"/><path id="path1312-2" class="cls-1" d="M179,125.13c-10.87-7.54-11.7-8.94-11-18.51.48-6.3,1.33-8.87,3-8.87s2.3-2,2.3-6.89c0-5.29-.75-7.27-3.23-8.53-2.74-1.38-3.09-2.68-2.26-8.4s.42-7.21-2.48-9.56c-4.49-3.63-4.38-4.89.63-7,4-1.73,4.08-2,3.08-14.24-.57-6.87-2-14-3.22-15.8-2-3.06-1.78-3.46,3.06-5.22,12.39-4.51,17.42-7,17.46-8.68,0-1,3.53-2.16,7.8-2.62,15.49-1.67,4.14-2.08,10.17-5.85s30-5.71,50-4.62c19.13,1,34.36,19.42,33.44,22.14-.46,1.39.08,7.34-4.23,4.77S264.76,7.29,262.07,9.14c-4.9,3.38,8.38,14.84,8.38,18.06,0,4.64.47,13.78,4.69,17.39,5,4.29,9.14,1.34,20.36.86,16.44-.7,20.48,3.46,14.28,14.69-3.37,6.09-3.08,11.8.69,14a9.17,9.17,0,0,1,3.68,6.1c.44,3.56,1.56,4.44,7,5.49,3.55.69,6.79,1.58,7.2,2,1.56,1.47-10.51,11.53-13.84,11.54-2.51,0-3.74,1.24-4.41,4.43-.64,3-2.49,5-5.89,6.34-3.7,1.45-5.21,3.26-6,7.16-.93,4.7-1.46,5.12-5.35,4.25a23.62,23.62,0,0,1-8.63-4.74c-4.46-3.91-13.19-6.52-22-6.58a12.13,12.13,0,0,1-8-3.13c-3.72-3.88-17.9-4.44-19.39-.77-.52,1.28-2.62,2.33-4.67,2.34-4.42,0-6.36,1.21-8.84,5.38-1.44,2.43-3.53,3.09-9.8,3.09-7.29,0-8.19.41-10.4,4.73-1.92,3.74-3.46,4.73-7.36,4.71a24.65,24.65,0,0,0-7.39,1C184.92,128.09,181.79,127.09,179,125.13Z"/><path id="path1326-2" class="cls-1" d="M446.72,374.87c-1.11-1.26-4.82-3.1-8.24-4.06-3.65-1-6.54-2.94-7-4.63-1.06-3.81-5.72-5.35-9.48-3.13-4.71,2.78-9.44,2.12-13.37-1.86a21,21,0,0,0-7.28-4.73,7.65,7.65,0,0,1-4.67-4.86,6.84,6.84,0,0,0-4.8-4.67c-4.38-1-3.76-4.62,1-6.06,3.32-1,4.37-7.53,1.48-9.22-.9-.52-1.63-2.54-1.63-4.48a9.73,9.73,0,0,0-3.24-6.29c-4.17-3.56-2.83-5.43,3.9-5.43,3.12,0,6.5-1.18,8.07-2.83,2.87-3,3.7-11.84,1.26-13.27-.8-.47-1.93-3.28-2.53-6.27l-1.07-5.41H388.11c-6.41,0-11.86-.78-13-1.86s-2-5.14-2-9.17c0-6.45-.53-7.57-4.45-9.34a11.91,11.91,0,0,1-5.92-6.65c-2.76-8.79-3.4-9.27-11.89-9-4.39.16-11.11.75-14.93,1.32-6,.89-8,.38-15.12-3.93-8.79-5.32-10.09-8.18-4.91-10.8,3.47-1.75,4.39-7.58,1.61-10.2-2.21-2.1,1.25-11.52,5.21-14.19,3.2-2.16,4.12-10.26,1.36-11.88-.9-.52-1.64-2.64-1.64-4.72,0-2.69.9-3.76,3.16-3.76a3.58,3.58,0,0,0,3.67-3.41c.33-2.15,2-3.75,4.61-4.33,3.68-.83,4.09-1.69,4.09-8.54,0-7.57.05-7.64,6.91-9.89,5.61-1.84,7.93-1.92,12.38-.4A46.71,46.71,0,0,0,370,168.79c6.83,0,7.41-.39,10.24-6.17s3.32-6.14,10.64-6.14c6.37,0,7.93-.58,9.27-3.47,1.09-2.35,3.28-3.63,6.76-3.94a14.69,14.69,0,0,0,8-3.48c2-2.07,5-3,9.78-3,3.93,0,7.72-.93,8.81-2.17s5.46-2.41,9.81-2.7l7.9-.53.83,13.86c.67,11,1.42,14.17,3.71,15.43,5.77,3.18,12.21,10,12.21,13,0,7.8,9.84,17.1,18.1,17.1a7.94,7.94,0,0,1,6,3.09c1.41,2.13,3.82,3.08,7.75,3.08,4.87,0,5.71.53,5.71,3.55a8.44,8.44,0,0,0,1.92,5.36c1.46,1.38,1.41,3.22-.19,7.8-2.9,8.31-1.37,11.38,8.92,17.83,7.49,4.69,10.34,5.59,17.74,5.59,5.84,0,9.5.78,10.85,2.31a9,9,0,0,0,5.52,2.5c2.6.14,2.3.43-1.19,1.16s-5.75,2.89-8.48,7.7c-4.19,7.4-9.72,12-11.37,9.5-.56-.86-3.62-1.56-6.8-1.56-4.4,0-6,.73-6.63,3.08-.6,2.19-2.23,3.09-5.57,3.09-2.6,0-4.72.7-4.72,1.54s-4.32,1.54-9.71,1.54-10.11.6-10.59,1.35-3.1,1.76-5.82,2.28c-5.25,1-6.65,5-3,8.41,1.53,1.44,1.53,2.27,0,3.7-1.08,1-2,5.38-2,9.69,0,9.25-3.37,14.7-9.09,14.7-5.95,0-5.67,8.66.43,13.25,3.5,2.63,4.47,4.73,4.65,10.09a60.71,60.71,0,0,0,.67,8.3c.7,2.44,0,21.32-1,24.31-.62,2-2.57,2.7-7.87,2.7-4.27,0-7.85.92-9.09,2.32C450.7,377.79,449.28,377.79,446.72,374.87Z"/></g></g></svg>