<svg xmlns="http://www.w3.org/2000/svg" viewBox="0 0 239.17 239.87"><defs><style>.cls-1{fill:#f8f9fd;}</style></defs><g id="Warstwa_2" data-name="Warstwa 2"><g id="Warstwa_1-2" data-name="Warstwa 1"><path id="path1326-2" class="cls-1" d="M133.85,237.68c-1.12-1.27-4.83-3.1-8.24-4.06-3.66-1-6.54-2.94-7-4.63-1.06-3.81-5.71-5.35-9.47-3.13-4.72,2.78-9.44,2.12-13.38-1.86a21,21,0,0,0-7.27-4.73,7.69,7.69,0,0,1-4.68-4.86,6.81,6.81,0,0,0-4.8-4.67c-4.38-1-3.76-4.62,1-6.06,3.33-1,4.38-7.53,1.48-9.22-.9-.52-1.63-2.54-1.63-4.48a9.72,9.72,0,0,0-3.23-6.29c-4.18-3.56-2.84-5.43,3.89-5.43,3.13,0,6.5-1.18,8.08-2.83,2.86-3,3.7-11.84,1.25-13.27-.8-.47-1.93-3.28-2.52-6.27l-1.08-5.41h-11c-6.41,0-11.87-.78-13-1.86s-2-5.14-2-9.17c0-6.46-.53-7.57-4.46-9.34a11.86,11.86,0,0,1-5.91-6.65c-2.77-8.79-3.41-9.27-11.89-9-4.4.16-11.11.75-14.93,1.32-6,.89-8,.38-15.13-3.93-8.79-5.32-10.09-8.18-4.9-10.8,3.46-1.75,4.38-7.59,1.61-10.2C2.44,88.79,5.9,79.37,9.86,76.7c3.2-2.16,4.13-10.26,1.36-11.88-.9-.52-1.64-2.65-1.64-4.72,0-2.69.9-3.77,3.16-3.77a3.58,3.58,0,0,0,3.68-3.4c.33-2.15,2-3.75,4.61-4.33,3.67-.83,4.09-1.69,4.09-8.54,0-7.57,0-7.64,6.9-9.89,5.61-1.84,7.93-1.92,12.38-.4A46.71,46.71,0,0,0,57.11,31.6c6.84,0,7.41-.39,10.24-6.18S70.67,19.29,78,19.29c6.37,0,7.92-.58,9.26-3.47,1.09-2.35,3.29-3.63,6.76-4a14.61,14.61,0,0,0,8-3.47c2-2.07,5-3,9.78-3,3.94,0,7.72-.93,8.81-2.17S126.1.82,130.44.53l7.9-.53.84,13.86c.66,11,1.42,14.17,3.7,15.43,5.78,3.18,12.21,10,12.21,13,0,7.8,9.85,17.1,18.1,17.1a7.94,7.94,0,0,1,6.05,3.09c1.41,2.13,3.81,3.08,7.75,3.08,4.87,0,5.71.53,5.71,3.55a8.37,8.37,0,0,0,1.91,5.36c1.46,1.38,1.42,3.22-.18,7.8-2.91,8.31-1.38,11.38,8.91,17.83,7.49,4.69,10.34,5.59,17.74,5.59,5.85,0,9.5.78,10.86,2.31a9,9,0,0,0,5.51,2.5c2.6.14,2.3.43-1.19,1.16-3.34.7-5.75,2.89-8.47,7.7-4.19,7.4-9.72,12-11.37,9.5-.57-.86-3.63-1.56-6.8-1.56-4.4,0-6,.73-6.64,3.08-.6,2.19-2.23,3.09-5.57,3.09-2.59,0-4.71.7-4.71,1.54s-4.33,1.54-9.72,1.54-10.11.6-10.59,1.35-3.1,1.76-5.82,2.27c-5.24,1-6.65,5-3,8.42,1.53,1.44,1.53,2.27,0,3.7-1.07,1-2,5.38-2,9.69,0,9.25-3.37,14.7-9.08,14.7-6,0-5.68,8.66.42,13.25,3.5,2.63,4.47,4.73,4.65,10.09a62.33,62.33,0,0,0,.67,8.3c.71,2.44,0,21.32-.95,24.31-.63,2-2.57,2.7-7.88,2.7-4.27,0-7.85.92-9.08,2.32C137.82,240.59,136.4,240.6,133.85,237.68Z"/></g></g></svg>