<svg xmlns="http://www.w3.org/2000/svg" viewBox="0 0 108.45 118.84"><defs><style>.cls-1{fill:#f8f9fd;}</style></defs><g id="Warstwa_2" data-name="Warstwa 2"><g id="Warstwa_1-2" data-name="Warstwa 1"><path id="path1336-2" class="cls-1" d="M56.48,115.27c-1.95-2-3.55-4.37-3.55-5.35s-1.48-2.52-3.27-3.43-3.27-2.38-3.27-3.28,1.47-2,3.27-2.44c2.42-.6,3.27-2.1,3.27-5.86v-5l-11.28-.6C31,88.7,30,88.3,23.85,82.5,17.2,76.22,13.36,73.9,4.8,71L0,69.31l5.21-3c3-1.72,5.21-4.27,5.21-6s1.3-3.19,3.4-3.5c3.15-.45,7.68-9.16,10.73-20.63.47-1.75,4.1-6.52,8.08-10.6s7.22-8.72,7.22-10.29,1.47-3.59,3.27-4.5C46.6,9,47.63,4.63,44.56,4.63c-1.27,0-1.21-.72.2-2.32C45.88,1,48.91,0,51.5,0c3.61,0,4.7.71,4.7,3.09,0,2.66,1.09,3.08,8,3.08,5.1,0,8.71-.83,10-2.31,2.28-2.6,12.34-3.16,13.9-.77.56.84,3.43,1.54,6.38,1.54,6.05,0,10.79,3.91,10.79,8.9,0,1.8.73,3.69,1.63,4.22,2.55,1.48,1.94,5-1.4,8-1.67,1.52-3.48,5.45-4,8.74s-2.12,7.16-3.5,8.61c-2.62,2.73-3.5,9.34-1.25,9.34.71,0,2.53,2,4,4.4,2.7,4.3,2.67,4.44-1.28,6.14-2.22.95-4,2.7-4,3.9s-1.2,3.1-2.66,4.24c-2.16,1.7-2.48,4-1.73,12.54.72,8,.44,10.45-1.21,10.45-1.17,0-4,1.39-6.29,3.08a17.9,17.9,0,0,1-9.1,3.09c-5.27,0-7.82,3.67-6.16,8.88.86,2.72-4,9.64-6.75,9.64C60.71,118.84,58.44,117.24,56.48,115.27Z"/></g></g></svg>