<svg xmlns="http://www.w3.org/2000/svg" viewBox="0 0 145.28 174.11"><defs><style>.cls-1{fill:#f8f9fd;}</style></defs><g id="Warstwa_2" data-name="Warstwa 2"><g id="Warstwa_1-2" data-name="Warstwa 1"><path id="path1364-2" class="cls-1" d="M100.93,171.2c-5-1.71-10.47-3.53-12.27-4a34.2,34.2,0,0,1-7.35-3.57,49.39,49.39,0,0,0-10.14-4.49c-3.48-1.06-6.5-3.16-7.09-4.92-1.7-5.06-11.95-13.72-16.25-13.72-2.16,0-4.43-.75-5-1.67s-4.68-1.48-9.5-1.2c-4.62.26-9.55-.2-10.95-1-2.87-1.7-8.66-16-11.42-28.14-1.17-5.17-3-8.69-5-9.7-3.74-1.89-4.1-5.42-.68-6.66A3.69,3.69,0,0,0,7.73,89a6.31,6.31,0,0,0-2.45-4.1C3.64,83.6,2.83,80.14,2.83,74.46A58.18,58.18,0,0,0,1,60.13c-1.7-5.34-1.46-6.37,2.89-12.48,2.61-3.66,9-9.47,14.19-12.92S29.14,26,31.12,23C42.84,5,44.49,3.19,48.92,3.14c2.41,0,4.85-.75,5.4-1.6S56.76,0,58.51,0c2.68,0,3.17,1.1,3.17,7.16,0,8.23,2.86,11.23,10.79,11.31,4.37,0,10.47,3.88,10.47,6.58,0,.48-2.58,2.32-5.73,4.07-4.72,2.63-5.72,4.09-5.72,8.33,0,6.79,2.5,8.85,10.76,8.85A41.12,41.12,0,0,1,95,48.62c3.22,1.27,10.13,2.31,15.34,2.31,8.13,0,9.7-.47,11.09-3.35,3.55-7.36,10.88-7.54,19.3-.49l4.6,3.86L138,60a141.88,141.88,0,0,0-9.35,12.72,18.09,18.09,0,0,1-3.19,4.43c-1.74,1.16-14.71,21.71-14.71,23.31a1.37,1.37,0,0,1-1.36,1.38c-.76,0-3.86,4.48-6.89,10l-5.53,10,2.94,7.7a29.16,29.16,0,0,1,1.81,16.15c-1.29,9.78,2.06,17.14,8.51,18.67,2.91.69,3.8,2,3.8,5.5C114,175.23,112.93,175.35,100.93,171.2Z"/></g></g></svg>