<svg xmlns="http://www.w3.org/2000/svg" viewBox="0 0 139.07 206.51"><defs><style>.cls-1{fill:#f8f9fd;}</style></defs><g id="Warstwa_2" data-name="Warstwa 2"><g id="Warstwa_1-2" data-name="Warstwa 1"><path id="path1318-2" class="cls-1" d="M93.62,204.38c-1.35-1.54-5-2.32-10.85-2.32-7.39,0-10.25-.9-17.67-5.55-4.87-3-9.27-6.57-9.78-7.82-1.06-2.62,1.68-8.23,4-8.23,2.53,0,1.75-3.56-1.7-7.72-1.75-2.12-3.21-5.42-3.23-7.33,0-3.51-.82-3.9-8.21-4.13-3-.08-4-.87-3.61-2.82.39-2.17-.71-2.7-5.62-2.7-10.26,0-20.2-8.42-20.2-17.1,0-3-6.44-9.85-12.21-13-2.29-1.26-3-4.41-3.72-15.65L0,95.91l6.75-1.07c3.71-.6,7.11-1.63,7.55-2.31s4.22-1.72,8.39-2.3c7.77-1.1,9.54-2.36,20.22-14.45,3.12-3.54,6.48-6.44,7.46-6.44,3.1,0,11.05-9,13.27-15,3-8.2,2.73-10.52-1.67-13.24-2.84-1.76-4.09-4.27-4.71-9.49-.58-4.83-2.07-8.09-4.67-10.22l-3.82-3.13,7.52-6.47c4.14-3.57,7.95-7.69,8.48-9.18C66.14-1.26,71.16-.76,76.3,3.74c2.43,2.12,5.14,3.86,6,3.86s3.2,1.39,5.13,3.08,4.73,3.09,6.22,3.09c6.33,0,13.3,14.36,11.87,24.44-.57,4-.27,6.43.81,6.43,2.89,0,5.43,10,4.27,16.81-.8,4.74-.43,7.11,1.44,9.08,1.39,1.46,3.06,5.36,3.71,8.67a46,46,0,0,0,5,12.34c2.11,3.49,3.85,7.76,3.86,9.49s1.51,5.9,3.34,9.26c3.93,7.24,9.06,25.64,10.66,38.29,1.47,11.54-1.22,19.84-7.2,22.28-8.31,3.4-15.33,7.87-17.93,11.42a52.87,52.87,0,0,1-4.73,5.62,8.06,8.06,0,0,0-2.11,5c0,1.64-.6,3-1.33,3s-2.56,2.43-4.06,5.4C98.31,207.22,96.69,207.87,93.62,204.38Z"/></g></g></svg>