<svg xmlns="http://www.w3.org/2000/svg" viewBox="0 0 166.43 127.67">
<path id="path1312-2" class="cls-1" d="M17,125.13c-10.88-7.54-11.7-8.94-11-18.51.47-6.3,1.33-8.87,3-8.87s2.3-2,2.3-6.89c0-5.29-.75-7.27-3.23-8.53C5.26,81,4.91,79.65,5.74,73.93s.42-7.21-2.49-9.56c-4.49-3.63-4.37-4.89.63-7,4-1.73,4.08-2,3.08-14.24-.56-6.87-2-14-3.21-15.8-2-3.06-1.79-3.46,3.05-5.22,12.39-4.51,17.42-7,17.46-8.68,0-1,3.54-2.16,7.81-2.62C47.56,9.1,36.21,8.69,42.23,4.92S72.2-.79,92.28.3c19.12,1,34.35,19.42,33.44,22.14-.47,1.39.08,7.34-4.24,4.77S102.74,7.29,100,9.14c-4.9,3.38,8.39,14.84,8.39,18.06,0,4.64.47,13.78,4.68,17.39,5,4.29,9.14,1.34,20.36.86,16.45-.7,20.49,3.46,14.28,14.69-3.36,6.09-3.08,11.8.7,14a9.15,9.15,0,0,1,3.67,6.1c.44,3.56,1.56,4.44,7,5.49,3.54.69,6.78,1.58,7.2,2,1.55,1.47-10.51,11.53-13.85,11.54-2.51,0-3.73,1.24-4.41,4.43-.64,3-2.49,5-5.88,6.34-3.7,1.45-5.22,3.26-6,7.16-.94,4.7-1.46,5.12-5.36,4.25a23.79,23.79,0,0,1-8.63-4.74c-4.45-3.91-13.18-6.52-22-6.58a12.17,12.17,0,0,1-8-3.13c-3.72-3.88-17.9-4.44-19.39-.77-.52,1.28-2.62,2.33-4.67,2.34-4.42,0-6.36,1.21-8.83,5.38-1.44,2.43-3.53,3.09-9.81,3.09-7.29,0-8.19.41-10.4,4.73-1.91,3.74-3.46,4.73-7.36,4.71a24.65,24.65,0,0,0-7.39,1C22.89,128.09,19.77,127.09,17,125.13Z"/>
</svg>