<svg xmlns="http://www.w3.org/2000/svg" viewBox="0 0 111.63 168.23"><defs><style>.cls-1{fill:#f8f9fd;}</style></defs><g id="Warstwa_2" data-name="Warstwa 2"><g id="Warstwa_1-2" data-name="Warstwa 1"><path id="path1338-2" class="cls-1" d="M62.72,166.8c0-.78-2.91-4-6.46-7.19-5.38-4.81-6.54-6.94-6.95-12.7-.3-4.3-1.42-7.33-2.94-8-12.66-5.51-12.26-5-12.26-14,0-8.2-.12-8.42-4.9-8.91-2.7-.28-5.6-1.15-6.46-1.93s-3.28-1.42-5.39-1.42c-4.63,0-18.57-13.24-17.28-16.4.48-1.17,2.56-2.12,4.63-2.12S12.27,92.27,16.93,90c7.55-3.7,8.35-4.57,7.47-8.1C21.6,70.62,21.55,67,24.13,65c1.44-1.13,2.62-3,2.62-4.14s2.21-3.16,4.91-4.48,4.9-2.82,4.9-3.33c0-1.59-7.13-12.07-8.61-12.65-.77-.3-.22-1.78,1.23-3.28s3.06-5.43,3.6-8.72,2.43-7.3,4.2-8.9c2.55-2.32,3.05-4.32,2.41-9.69C38.46,2,40.65,0,50.31,0c4.39,0,6.45.94,8.49,3.89,2.36,3.4,3.77,3.86,11.12,3.63,10-.31,15.2,2.3,16.58,8.26.8,3.45,1.9,4.29,5.6,4.29,2.59,0,5,1,5.55,2.31a3.89,3.89,0,0,0,3.29,2.31c1.78,0,2.14,1.45,1.49,6-.77,5.37-.26,6.53,4.63,10.66,5.27,4.44,5.37,4.75,2.65,7.6-3.5,3.64-3.68,7.92-.39,9.11,6.92,2.5-3.09,8.95-11.58,7.46-4-.72-6,.25-12.54,6.29-8.28,7.61-9.21,9.53-5.31,10.94,3.62,1.31,3,3.16-2.86,9-13.57,13.52-15.6,19-8.67,23.24,3.12,1.92,4.11,4,4.5,9.55.46,6.56.91,7.21,6.2,8.88,4.28,1.36,6.27,3.21,8,7.4,2.86,7.1,1.76,9.7-5.46,13A16.81,16.81,0,0,0,73,162.35c-2,4.37-3.73,5.88-6.52,5.88C64.42,168.21,62.72,167.58,62.72,166.8Z"/></g></g></svg>