<svg xmlns="http://www.w3.org/2000/svg" viewBox="0 0 134.8 110.3"><defs><style>.cls-1{fill:#f8f9fd;}</style></defs><g id="Warstwa_2" data-name="Warstwa 2"><g id="Warstwa_1-2" data-name="Warstwa 1"><path id="path1332-2" class="cls-1" d="M46,109.2c-4.5-3-7.32-10-7.32-18,0-10.61-2-11.83-17.33-10.75-12.15.85-17.75-.84-14.13-4.26s2.36-10-3-14.29C-.57,58.13-.74,57.61,1,52.5c1-3,2.45-5.4,3.14-5.4,1.63,0,5-7.12,5-10.53,0-2.18,1.19-2.56,6.54-2.08l6.54.59V28.91c0-4-.84-6.47-2.43-7a2.39,2.39,0,0,1-1.54-3,2.09,2.09,0,0,1,.08-.23c.69-1.69,3.28-2.37,9-2.37,6.81,0,8-.44,8-3a4.59,4.59,0,0,1,3.27-4,4.5,4.5,0,0,0,3.27-3.77c0-6.9,8.7-7.53,10.5-.77a6.79,6.79,0,0,0,4.87,4.64,18.32,18.32,0,0,1,7.5,4.86c3.3,3.58,4.43,3.85,12.62,3.05,7.76-.75,9.11-.49,9.77,1.91.45,1.6,3.43,3.54,7,4.55,3.41,1,7.12,2.8,8.24,4.06,2.62,3,10.45,3,13.07,0,1.12-1.27,4.36-2.31,7.2-2.31,5.08,0,5.22.2,9.09,13.21s3.88,13.29.9,18.14c-1.67,2.7-4,5.48-5.21,6.16s-3.62,3.89-5.36,7.12c-1.91,3.53-6.38,7.82-11.16,10.72-8.21,5-16.71,12.9-16.71,15.6,0,.84-2,2-4.5,2.47-10.18,2.14-27.67,7.26-31.72,9.29C53.27,110.58,48.58,111,46,109.2Z"/></g></g></svg>