<svg xmlns="http://www.w3.org/2000/svg" viewBox="0 0 213.86 126.29"><defs><style>.cls-1{fill:#f8f9fd;}</style></defs><g id="Warstwa_2" data-name="Warstwa 2"><g id="Warstwa_1-2" data-name="Warstwa 1"><path id="path1314-2" class="cls-1" d="M58.2,124.67a27.58,27.58,0,0,0-9.81-1.06c-7,.56-11.5-3.06-11.51-9.19,0-3.77-1.56-5-13.9-10.94C9.1,96.79,9.09,96.78,9.09,90.7s-.31-6.33-7.64-8.35c-3.41-.95-.36-6.59,4.61-8.53,3.29-1.29,5.14-3.31,5.77-6.3.6-2.82,2-4.41,3.77-4.41,4,0,14.74-10,14.74-13.7s-1.89-4.95-8.74-6.28c-3.64-.7-5.27-2.1-6.18-5.3-.67-2.39-2.36-5.15-3.75-6.13C9.06,29.86,9.75,23,12.55,23,13.35,23,14,20.2,14,16.8c0-5.53.42-6.17,4-6.17,6.11,0,15.52-5,15.56-8.24,0-2.52,1.15-2.74,10.26-2.05,5.62.43,14.63,1.46,20,2.29,31.86,4.9,40,5.6,64.58,5.48,14.84-.06,34-.92,42.51-1.9S192,4.06,198.75,3.59L211,2.74l-6.13,5.1c-7.22,6-7.78,10.35-2,15.77,3,2.83,4.08,5.5,4.08,10.06,0,4.83.86,6.74,3.88,8.61,3.58,2.21,3.73,2.81,1.93,7.74-2.22,6.11-7.59,12-14.85,16.2-2.76,1.61-7.4,6.06-10.32,9.89-4.08,5.37-6.88,7.36-12.18,8.66-3.78.93-12,3.46-18.32,5.63s-14.91,4.27-19.14,4.67-8.55,1.71-9.6,2.9-4.87,2.17-8.81,2.17c-4.83,0-7.79.93-9.86,3.09-1.63,1.7-4.37,3.09-6.09,3.09-4.53,0-9.45,2.84-9.45,5.45,0,1.64-2,2.26-7.1,2.26-7.51,0-11.17,2.46-13.25,8.88-.86,2.68-2.3,3.45-6.32,3.37A33.38,33.38,0,0,1,58.2,124.67Z"/></g></g></svg>