<svg xmlns="http://www.w3.org/2000/svg" viewBox="0 0 197.28 247.74"><defs><style>.cls-1{fill:#f8f9fd;}</style></defs><g id="Warstwa_2" data-name="Warstwa 2"><g id="Warstwa_1-2" data-name="Warstwa 1"><path id="path1324-2" class="cls-1" d="M121.85,240.4a107.86,107.86,0,0,1-3-14.68c-.84-7.26-.93-7.36-8.41-9.14-4.16-1-6.67-2.08-5.57-2.43,3.39-1.06,2.27-8.86-1.78-12.45-4.79-4.25-7.29-4.23-12.18.11-6.44,5.72-17.3,4.84-28.73-2.33-6.24-3.91-9.26-6.83-9.26-9,0-1.74-3.62-6.78-8-11.2s-8.57-10-9.21-12.4c-1.1-4.15-1.5-4.32-8.11-3.38-6.37.9-7,.67-7.93-2.73-.54-2-4.31-6.6-8.37-10.13-8.08-7-8.46-8.54-5.52-22.33,1.65-7.77,1.53-9.12-1-11.8-2.41-2.51-2.55-3.45-.8-5.43s1.71-3.65.06-8.9A68.58,68.58,0,0,0,.54,93.14a3.11,3.11,0,0,1,.8-4.3h0c1.21-1,2.69-4.17,3.28-7.16s2.17-5.82,3.5-6.3c3.43-1.24,7.21-8.76,7.21-14.32,0-4.21.52-4.71,4.94-4.71,6.32,0,17.62-6.7,19.61-11.63.84-2.09,2.47-3.8,3.61-3.8,3.33,0,14.35-11.62,14.35-15.12a4.54,4.54,0,0,0-3.05-4.1,17,17,0,0,1-6-4c-2.83-3-2.8-3,1-3.06,6.85,0,14.28-5.42,14.86-10.82.51-4.73.58-4.77,3.79-2,9,7.86,14,10.09,20.45,9.12,7.08-1.07,10.39,1.41,6,4.47-4.26,2.94-3.47,11,1.38,14,5.14,3.18,5.22,6.39.23,8.53-3.38,1.46-4,3-4.84,12.62-1,11.84-.28,13.71,7.15,17.34,6.15,3,7.11,7.68,2.2,10.72-5.73,3.54-5.6,12.7.2,14.07a18.75,18.75,0,0,0,7.35.18c2.58-.64,3.25,0,3.25,3,0,4.77,4.13,6.35,8,3,3.31-2.83,5.37-1.5,7.43,4.84.74,2.3,3.17,4,7.36,5,3.44.88,7.17,2.63,8.28,3.9,2.73,3.1,13.07,3.1,13.07,0,0-3.29,2.88-2.87,5.28.77a7.9,7.9,0,0,0,6.6,3.08c3.21,0,5,1,6,3.48,2.72,6.73,7.57,9.38,15.09,8.24,4.48-.67,7.26-.42,8,.73,1.55,2.37-1.84,11-5.27,13.42a10,10,0,0,0-3.27,6.17c-.4,3.32-1.56,4.39-5.37,5-6,1-9,8.53-6.24,15.54,1.55,3.88,1.3,4.67-2.2,6.83a12.83,12.83,0,0,1-9.34,1.5c-8.29-1.47-9.75,1.46-10.8,21.68-.5,9.61-1.39,17.94-2,18.49s-2.64.09-4.56-1c-3.14-1.83-3.94-1.54-8.14,3-2.56,2.76-5.47,5-6.48,5-2.48,0-2.31,2.42.35,4.92a15.87,15.87,0,0,1,3.3,6.29c.62,2.32,1.84,4.22,2.73,4.22a1.59,1.59,0,0,1,1.6,1.55,1.67,1.67,0,0,1-1.75,1.54c-1,0-2.86,1-4.2,2.32a11.52,11.52,0,0,1-6.87,2.31C124.53,247.73,123.73,246.84,121.85,240.4Z"/></g></g></svg>