<svg xmlns="http://www.w3.org/2000/svg" viewBox="0 0 170.02 181.75"><defs><style>.cls-1{fill:#f8f9fd;}</style></defs><g id="Warstwa_2" data-name="Warstwa 2"><g id="Warstwa_1-2" data-name="Warstwa 1"><path id="path1316-2" class="cls-1" d="M22.84,181.2c0-.84-5.13-6.36-11.39-12.27S0,157.23,0,156s3.26-5.5,7.3-9.58,7.36-8.19,7.36-9.13,2-5.48,4.35-10.09c3.86-7.44,4.14-9,2.53-14.18a102.8,102.8,0,0,1-2.85-12.74c-.57-3.82-1.56-10.42-2.2-14.66s-2.06-9.22-3.13-11.07c-1.2-2.07-1.56-6-.92-10.41,1-6.66,1.32-7.08,6.12-7.14a44.06,44.06,0,0,0,11.63-2.43c3.6-1.3,9.85-3.36,13.9-4.58a51.41,51.41,0,0,0,11.44-5c4.63-3.17,13.37-5.64,30.85-8.72C93.87,35,99.79,32.94,102,31c2.54-2.26,5.76-3.19,11-3.19,13.46,0,25-7.1,32.21-19.76,2-3.5,9.76-8,13.79-8,3.16,0,5.64,6.67,6.42,17.24.59,8,.3,8.9-3.15,10.38-4.72,2-5.08,8.22-.71,12.34,2.42,2.29,2.91,4.4,2.25,9.88-.71,6-.33,7.21,2.64,8.71,3.89,2,4.87,9.36,1.23,9.36-1.57,0-2.49,3-3.11,10.37C164.16,84,163,88.9,162,89.21s-1.8,2.54-1.8,5c0,5.66-6.7,10.78-14.12,10.78-7.84,0-7.41,4.85.95,10.57l6.45,4.41-6.11,5.63c-3.36,3.1-7,5.63-8.13,5.63s-2.7,1.71-3.54,3.79c-1.86,4.61-13.38,12.12-17.46,11.38-2.38-.44-2.84-1.79-2.44-7.08l.5-6.55h-5.84c-5.35,0-5.85.38-5.85,4.44,0,3.74-.81,4.59-5.11,5.4a63.23,63.23,0,0,1-9.61,1c-2.47,0-5.42,1-6.54,2.31a7.62,7.62,0,0,1-5,2.31,7.65,7.65,0,0,0-5.14,2.7c-4,5-11.89,7.82-19.67,7-6.67-.71-7.59-.38-10.81,3.88-1.93,2.56-3.51,5.67-3.51,6.91,0,3.45-6.42,10.39-9.6,10.39a8,8,0,0,0-4.78,1.85C23.72,181.9,22.84,182,22.84,181.2Z"/></g></g></svg>